<svg id="beta" xmlns="http://www.w3.org/2000/svg" viewBox="0 0 603.02 522.23"><defs><style>.cls-1{fill:#ffeb3b;}.cls-2{fill:#cddc39;}.cls-3{fill:#8bc34a;}.cls-4{fill:#4caf50;}.cls-5{fill:#ef5350;}.cls-6{fill:#ff7043;}.cls-7{fill:#ffa726;}.cls-8{fill:#ffca28;}</style></defs><title>icon</title><polygon class="cls-1" points="301.53 522.23 452.28 435.19 301.51 174.09 301.53 522.23"/><polygon class="cls-2" points="301.51 174.09 452.28 435.19 603.02 348.14 301.51 174.09"/><polygon class="cls-3" points="603.02 348.14 603.01 174.07 301.51 174.09 603.02 348.14"/><polygon class="cls-4" points="301.51 174.09 603.01 174.07 603 0 301.51 174.09"/><polygon class="cls-5" points="0 0.04 0.01 174.11 301.51 174.09 0 0.04"/><polygon class="cls-6" points="301.51 174.09 0.01 174.11 0.02 348.18 301.51 174.09"/><polygon class="cls-7" points="0.02 348.18 150.78 435.2 301.51 174.09 0.02 348.18"/><polygon class="cls-8" points="301.51 174.09 150.78 435.2 301.53 522.23 301.51 174.09"/></svg>